# xmcd CD database file
# Copyright (C) 1993-1998 Ti Kan
# 
# Track frame offsets:
#     150
#     15782
#     30430
#     45355
#     58295
#     72072
#     86025
#     98082
#     111242
#     125375
#     141740
#     155732
#     171060
#     184780
#     198190
#     212777
#     227482
#     239645
#     254902
#     267562
#     281945
#     297430
# 
# Disc length: 4153 seconds
# 
# Revision: 1
# Processed by: cddbd v1.4b41PL1 Copyright (c) Steve Scherf et al.
# Submitted via: DiscPlay 4.0.4
# 
DISCID=50103716
DTITLE=Various Artist - American Popular Song - Disk 2
DYEAR=1900
DGENRE=
TTITLE0=Fred Astaire - Night and Day
TTITLE1=+ Isn't This a Lovely Day?
TTITLE2=+ Cheek to Cheek
TTITLE3=+ A Fine Romance
TTITLE4=+ They Can't Take That Away from Me
TTITLE5=Frances Langford - I Feel a Song Comin' On
TTITLE6=Louis Armstrong - Jeepers Creepers
TTITLE7=Billie Holiday - You Go to My Head
TTITLE8=+ More Than You Know
TTITLE9=Helen Forrest - Day In, Day Out
TTITLE10=+ Taking a Chance on Love
TTITLE11=+ Skylark
TTITLE12=Martha Raye - Body and Soul
TTITLE13=Judy Garland - Zing! Went the Strings of My Heart
TTITLE14=Connie Boswell - The Nearness of You
TTITLE15=Shirley Ross - It Never Entered My Mind
TTITLE16=Ivie Anderson - I Got It Bad
TTITLE17=Lena Horne - Stormy Weather
TTITLE18=+ As Long As I Live
TTITLE19=Nat 'King' Cole - Sweet Lorraine
TTITLE20=+ Embraceable You
TTITLE21=Judy Garland - But Not for Me
EXTD=
EXTT0=
EXTT1=
EXTT2=
EXTT3=
EXTT4=
EXTT5=
EXTT6=
EXTT7=
EXTT8=
EXTT9=
EXTT10=Benny Goodman Orchestra
EXTT11=
EXTT12=
EXTT13=
EXTT14=
EXTT15=
EXTT16=
EXTT17=
EXTT18=
EXTT19=
EXTT20=
EXTT21=
PLAYORDER=
